<svg xmlns="http://www.w3.org/2000/svg" baseProfile="full"
    width="100" height="100" version="1.1">
   <defs>
     <linearGradient id="shine" x1="0" x2="1" y1=".75" y2="0">
      <stop offset="0%" stop-color="dimgray"/>
      <stop offset="85%" stop-color="gainsboro"/>
      <stop offset="100%" stop-color="slategray"/>
     </linearGradient>
   </defs>
   <g stroke="black" stroke-width="4" fill="url(#shine)">
    <rect x="12" y="4" height="41" width="41" rx="3" ry="3"/>
    <rect x="47" y="54" height="41" width="41" rx="3" ry="3"/>
   </g>
   <g stroke="black" stroke-width="4" stroke-linecap="round">
    <line x1="4" x2="12" y1="9" y2="9"/>
    <line x1="4" x2="12" y1="19" y2="19"/>
    <line x1="4" x2="12" y1="29" y2="29"/>
    <line x1="4" x2="12" y1="39" y2="39"/>
    <line x1="53" x2="61" y1="9" y2="9"/>
    <line x1="53" x2="61" y1="19" y2="19"/>
    <line x1="53" x2="61" y1="29" y2="29"/>
    <line x1="53" x2="61" y1="39" y2="39"/>
    <line x1="39" x2="47" y1="59" y2="59"/>
    <line x1="39" x2="47" y1="69" y2="69"/>
    <line x1="39" x2="47" y1="79" y2="79"/>
    <line x1="39" x2="47" y1="89" y2="89"/>
    <line x1="88" x2="96" y1="59" y2="59"/>
    <line x1="88" x2="96" y1="69" y2="69"/>
    <line x1="88" x2="96" y1="79" y2="79"/>
    <line x1="88" x2="96" y1="89" y2="89"/>
   </g>
</svg>
