<svg xmlns="http://www.w3.org/2000/svg" baseProfile="full"
    width="100" height="100" version="1.1">
   <defs>
     <linearGradient id="shine">
      <stop offset="0%" stop-color="lightgray"/>
      <stop offset="55%" stop-color="dimgray"/>
      <stop offset="85%" stop-color="gainsboro"/>
      <stop offset="100%" stop-color="slategray"/>
     </linearGradient>
     <radialGradient id="gold">
      <stop offset="0%" stop-color="#db0"/>
      <stop offset="45%" stop-color="#fe4"/>
      <stop offset="55%" stop-color="#ff7"/>
      <stop offset="60%" stop-color="#fe4"/>
      <stop offset="100%" stop-color="#fe4"/>
     </radialGradient>
     <clipPath id="right">
       <rect x="50" y="0" width="50" height="100" transform="rotate(-35, 50, 50)"/>
     </clipPath>
     <clipPath id="top">
       <ellipse cx="50" cy="50" rx="29" ry="11"/>
     </clipPath>
     <mask id="out">
       <rect x="0" y="0" width="100" height="100" fill="white"/>
       <ellipse cx="50" cy="50" rx="29" ry="11" fill="black"/>
     </mask>
   </defs>
   <rect x="48" y="50" width="4" height="44" fill="url(#shine)"/>
   <g transform="rotate(-7, 50, 50)" stroke="url(#shine)" stroke-width="4">
     <ellipse cx="50" cy="50" rx="20" ry="38" fill="transparent"/>
   </g>
   <ellipse cx="51" cy="53" rx="29" ry="11" fill="#ff7" stroke="gold" stroke-width="4" clip-path="url(#top)"/>
   <ellipse cx="50" cy="50" rx="38" ry="20" fill="transparent" stroke-width="4" stroke="url(#shine)"/>
   <ellipse cx="50" cy="52" rx="29" ry="11" fill="transparent" stroke="#db0" stroke-width="4" mask="url(#out)"/>
   <ellipse cx="50" cy="50" rx="29" ry="11" fill="transparent" stroke="url(#gold)" stroke-width="4"/>
   <rect x="48" y="4" width="4" height="47" fill="url(#shine)" ry="2"/>
   <circle cx="50" cy="5" r="3" fill="url(#shine)"/>
   <circle cx="50" cy="95" r="3" fill="url(#shine)"/>
   <g transform="rotate(-7, 50, 50)" stroke="url(#shine)" stroke-width="4">
     <ellipse cx="50" cy="50" rx="20" ry="38" fill="transparent" clip-path="url(#right)"/>
   </g>
</svg>
